<svg viewBox="95 200 950 650" fill="none" xmlns="http://www.w3.org/2000/svg">
<path d="M154 1C90.4 8.2 38.5 96.6667 20.5 140C10.9 160.298 3.5 189.791 1 202C-0.2 246.8 13.5 279.333 20.5 290C34.9 329.6 75.5 368.833 94 383.5C134 416.7 173.667 414.667 188.5 409.5C220.5 400.7 228.833 367.5 229 352C229.8 335.6 216.667 284.5 210 261C199.6 226.2 208.667 184.167 214.5 167.5C239.3 113.1 246.833 72.8333 247.5 59.5C239.5 10.7 181.833 0.166671 154 1Z" fill="#F8E8DB" stroke="#F7E5D7" stroke-linecap="round" stroke-linejoin="round"/>
</svg>
